<?xml version="1.0" encoding="UTF-8"?><svg id="Layer_1" xmlns="http://www.w3.org/2000/svg" viewBox="0 0 1692.63 1692.63"><path d="M1434.82,633.82l54-94-47-26-28,52-152-74-245,48,10,52,229-44,179,86Zm-510-314l-61-61-25,48,86,13Zm-93,155l54-2-2-45,129-67,188,14-133-201-112,50-112-68-185,153-32-71,50-41,11,20,43-35-40-61-129,102,75,171,210-173,105,61,100-42,51,77-104-8-170,90,3,76Zm564,683l179-151-21-277,89,45,24-47-173-86,27,343-69,56,1-313-131,298-48-67,143-283-145,5-100,184-18-68,118-198-128,8,3,53,25-3-77,132,60,215,150-271h25l-118,230,122,169,66-151-4,177Zm-328-488l21-48-107-47-21,49,107,46Zm-259-114l85-22-13-51-85,22,13,51Zm215,213l38-36-124-132-41,33,127,135Zm-221-149h86v-53h-86v53Zm-107-110l68-132-48-25-48,93-52-17,11-31-49-19-32,81,150,50Zm272,340l46-29-87-148-46,26,87,151Zm-149-57h53v-139h-53v139Zm105,180l52-14-51-174-51,15,50,173Zm-299-303l107-46-21-49-107,47,21,48Zm43,99l128-135-41-33-124,132,37,36Zm55,81l89-151-46-26-87,148,44,29Zm96,136h53v-162h-53v162Zm-50-13l50-173-51-15-51,174,52,14Zm-511-339l179-86,229,44,10-52-245-48-152,74-28-52-47,26,54,94Zm591,849l-61-88,47-150-89,41,44-124,59,25,57-22,43,121-85-41,44,146-59,92ZM49.82,774.82l89-45-21,277,179,151-4-177,66,151,122-169-118-230h25l150,271,60-215-77-132,25,3,3-53-128-8,118,198-18,68-100-184-145-5,143,283-48,67-131-298,1,313-69-56,27-343L25.82,727.82l24,47Zm799,797l115-174-17-59,94,47-100-282,84-39,18,157,82-25-43,58,90,40,29-44-34-20,50-69,33,33,33-37-70-82-41,56-85,27-16-176-135,64-23-62-49,18,39,109-54,21-53-21,36-109-48-18-24,62-136-64-15,176-58-18-47-65-69,82,32,37,34-33,50,69-36,20,30,44,90-40-37-49,56,16,17-157,87,39-100,278,95-45-19,69,115,166Z"/></svg>